<svg width="32" height="32" viewBox="0 0 32 32" fill="none" xmlns="http://www.w3.org/2000/svg">
<g clip-path="url(#clip0_246_996)">
<path d="M10.6667 14.3466H9.89334C8.83801 14.3085 7.7861 14.4877 6.8029 14.873C5.81969 15.2583 4.92617 15.8416 4.17778 16.5866L3.96445 16.8355V24.1955H7.59111V20.0178L8.08 19.4666L8.30223 19.2089C9.45949 18.02 10.9003 17.1451 12.4889 16.6666C11.6935 16.0614 11.0662 15.2628 10.6667 14.3466Z" fill="#F9F9F9"/>
<path d="M27.8578 16.56C27.1094 15.8149 26.2159 15.2316 25.2327 14.8463C24.2495 14.461 23.1975 14.2818 22.1422 14.32C21.8185 14.3209 21.4951 14.3387 21.1733 14.3733C20.7663 15.2328 20.1561 15.9802 19.3956 16.5511C21.0915 17.0203 22.6279 17.9421 23.84 19.2177L24.0622 19.4666L24.5422 20.0177V24.2044H28.0444V16.8089L27.8578 16.56Z" fill="#F9F9F9"/>
<path d="M9.86667 12.6134H10.1422C10.0142 11.514 10.2071 10.4011 10.6976 9.409C11.1882 8.41688 11.9554 7.58794 12.9067 7.02225C12.5618 6.49545 12.0861 6.06724 11.526 5.77954C10.966 5.49184 10.3408 5.35452 9.71176 5.38103C9.0827 5.40754 8.4713 5.59697 7.93744 5.93077C7.40358 6.26456 6.96556 6.73128 6.66627 7.28523C6.36698 7.83917 6.21669 8.46135 6.2301 9.09083C6.24352 9.72031 6.42019 10.3355 6.74281 10.8762C7.06542 11.4169 7.52293 11.8645 8.07053 12.1753C8.61813 12.486 9.23704 12.6492 9.86667 12.6489V12.6134Z" fill="#F9F9F9"/>
<path d="M21.7156 11.9467C21.7263 12.151 21.7263 12.3557 21.7156 12.56C21.8861 12.5871 22.0584 12.6019 22.2311 12.6045H22.4C23.0269 12.571 23.6344 12.3759 24.1634 12.0379C24.6925 11.7 25.125 11.2309 25.4189 10.6762C25.7128 10.1215 25.8581 9.50016 25.8406 8.87266C25.8231 8.24516 25.6434 7.63288 25.319 7.09544C24.9946 6.55799 24.5366 6.1137 23.9895 5.80581C23.4425 5.49792 22.825 5.33693 22.1973 5.33851C21.5695 5.34009 20.9529 5.50419 20.4074 5.81482C19.8619 6.12546 19.4061 6.57205 19.0844 7.11112C19.889 7.6364 20.5505 8.35317 21.0097 9.19714C21.4689 10.0411 21.7115 10.9859 21.7156 11.9467Z" fill="#F9F9F9"/>
<path d="M15.8844 15.9289C18.0789 15.9289 19.8578 14.15 19.8578 11.9556C19.8578 9.76116 18.0789 7.98224 15.8844 7.98224C13.69 7.98224 11.9111 9.76116 11.9111 11.9556C11.9111 14.15 13.69 15.9289 15.8844 15.9289Z" fill="#F9F9F9"/>
<path d="M16.0978 18.0445C14.9369 17.9976 13.7786 18.1861 12.6925 18.5985C11.6064 19.011 10.6149 19.6389 9.77778 20.4445L9.55556 20.6934V26.32C9.55903 26.5033 9.59857 26.6841 9.67193 26.8521C9.74528 27.0201 9.85102 27.172 9.98309 27.2991C10.1152 27.4262 10.271 27.5261 10.4417 27.593C10.6123 27.6598 10.7945 27.6924 10.9778 27.6889H21.1911C21.3744 27.6924 21.5566 27.6598 21.7272 27.593C21.8979 27.5261 22.0537 27.4262 22.1858 27.2991C22.3179 27.172 22.4236 27.0201 22.497 26.8521C22.5703 26.6841 22.6099 26.5033 22.6133 26.32V20.7111L22.4 20.4445C21.5683 19.6364 20.5803 19.0067 19.4966 18.594C18.4129 18.1813 17.2563 17.9943 16.0978 18.0445Z" fill="#F9F9F9"/>
</g>
<defs>
<clipPath id="clip0_246_996">
<rect width="32" height="32" fill="white"/>
</clipPath>
</defs>
</svg>
