<svg width="31" height="34" viewBox="0 0 31 34" fill="none" xmlns="http://www.w3.org/2000/svg">
<path d="M22.3889 25.5C23.1065 25.5 23.7161 25.2518 24.2179 24.7554C24.7208 24.2601 24.9722 23.6583 24.9722 22.95C24.9722 22.2417 24.7208 21.6399 24.2179 21.1446C23.7161 20.6482 23.1065 20.4 22.3889 20.4C21.6713 20.4 21.0616 20.6482 20.5599 21.1446C20.057 21.6399 19.8056 22.2417 19.8056 22.95C19.8056 23.6583 20.057 24.2601 20.5599 24.7554C21.0616 25.2518 21.6713 25.5 22.3889 25.5ZM22.3889 30.6C23.2787 30.6 24.0968 30.3943 24.8431 29.9829C25.5894 29.5726 26.1921 29.0275 26.6514 28.3475C26.0199 27.9792 25.3454 27.6958 24.6278 27.4975C23.9102 27.2992 23.1639 27.2 22.3889 27.2C21.6139 27.2 20.8676 27.2992 20.15 27.4975C19.4324 27.6958 18.7579 27.9792 18.1264 28.3475C18.5856 29.0275 19.1884 29.5726 19.9347 29.9829C20.681 30.3943 21.4991 30.6 22.3889 30.6ZM22.3889 34C20.0065 34 17.976 33.1715 16.2974 31.5146C14.6176 29.8565 13.7778 27.8517 13.7778 25.5C13.7778 23.1483 14.6176 21.1435 16.2974 19.4854C17.976 17.8285 20.0065 17 22.3889 17C24.7713 17 26.8024 17.8285 28.4821 19.4854C30.1607 21.1435 31 23.1483 31 25.5C31 27.8517 30.1607 29.8565 28.4821 31.5146C26.8024 33.1715 24.7713 34 22.3889 34ZM13.7778 34C9.78796 33.0083 6.4945 30.7485 3.89739 27.2204C1.29913 23.6935 0 19.7767 0 15.47V5.1L13.7778 0L27.5556 5.1V14.7475C26.8093 14.3792 25.97 14.0958 25.0377 13.8975C24.1042 13.6992 23.2213 13.6 22.3889 13.6C19.0593 13.6 16.2176 14.7617 13.8639 17.085C11.5102 19.4083 10.3333 22.2133 10.3333 25.5C10.3333 27.2567 10.6709 28.8433 11.346 30.26C12.02 31.6767 12.8736 32.9092 13.9069 33.9575C13.8782 33.9575 13.857 33.9649 13.8432 33.9796C13.8283 33.9932 13.8065 34 13.7778 34Z" fill="#222222"/>
</svg>
